<svg width="281" height="202" viewBox="0 0 281 202" fill="none" xmlns="http://www.w3.org/2000/svg">
<g filter="url(#filter0_d)">
<rect width="241" height="162" transform="translate(20 16)" fill="white"/>
<path d="M134.996 128.315C138.378 124.933 135.86 116.93 129.371 110.441C122.882 103.952 114.879 101.433 111.497 104.816C108.114 108.199 110.633 116.201 117.122 122.69C123.611 129.179 131.613 131.698 134.996 128.315Z" fill="#09A76D"/>
<path d="M119.726 115.111C119.25 114.634 119.172 113.912 119.489 113.353C118.023 110.522 117.28 107.474 117.28 104.505C115.32 104.291 113.368 104.394 111.506 104.819C110.149 110.768 112.077 117.641 117.131 122.695C121.692 127.256 127.733 129.27 133.24 128.624L119.726 115.111Z" fill="#02905D"/>
<path d="M167.345 140.328C175.72 137.732 181.412 132.089 180.059 127.724C178.706 123.358 170.82 121.924 162.445 124.519C154.071 127.115 148.378 132.758 149.732 137.124C151.085 141.489 158.971 142.924 167.345 140.328Z" fill="#09A76D"/>
<path d="M162.454 124.544C156.599 126.358 152.221 130.532 150.299 135.441L157.633 133.169C159.488 131.713 161.664 130.545 164.101 129.79C169.318 128.174 174.625 128.768 178.805 131.011C179.345 129.963 179.771 128.871 180.07 127.752C175.646 123.955 168.977 122.523 162.454 124.544Z" fill="#02905D"/>
<path d="M160.589 132.253L145.712 136.861L155.706 115.227L153.046 113.998L141.558 138.871V101.824H138.628V129.869L121.798 113.039C121.226 112.467 120.299 112.467 119.727 113.039C119.154 113.611 119.154 114.539 119.727 115.111L138.628 134.012V145.536C138.628 146.344 139.284 147 140.093 147C140.682 147 141.189 146.651 141.421 146.149L144.059 140.441L161.456 135.052C162.229 134.812 162.661 133.992 162.422 133.219C162.182 132.446 161.362 132.013 160.589 132.253Z" fill="#026841"/>
<path d="M140.417 72.4988C142.681 70.4816 145.284 68.8382 148.129 67.6652C147.83 62.5582 144.914 58.1554 140.702 55.7787C140.526 55.6794 140.309 55.6794 140.133 55.7787C135.92 58.1554 133.004 62.5582 132.706 67.665C135.551 68.838 138.154 70.4816 140.417 72.4988Z" fill="#FE99A0"/>
<path d="M122.407 66.0279V75.4072C126.764 76.2462 130.753 78.1314 134.102 80.7916C135.69 77.5693 137.899 74.7066 140.573 72.3603C135.887 68.1789 129.751 65.5886 123.011 65.4421C122.68 65.4349 122.407 65.6972 122.407 66.0279Z" fill="#FD8087"/>
<path d="M133.939 80.6632C136.522 82.6839 138.731 85.1619 140.443 87.975C144.341 81.5671 150.821 76.897 158.428 75.4171V66.0281C158.428 65.6974 158.154 65.4349 157.824 65.4421C147.338 65.6697 138.31 71.8113 133.939 80.6632Z" fill="#FDB4BA"/>
<path d="M140.229 88.3341L140.443 87.5867C135.719 80.0189 127.393 74.9312 117.863 74.7283C117.537 74.7212 117.271 74.9882 117.271 75.3144V84.0361C117.271 93.9681 125.322 102.019 135.254 102.019H136.317L136.524 101.297C136.647 96.5795 137.982 92.1586 140.229 88.3341Z" fill="#FE99A0"/>
<path d="M163.614 75.3148C163.614 74.9886 163.348 74.7216 163.022 74.7285C148.22 75.0437 136.317 87.1418 136.317 102.019H145.631C155.563 102.019 163.615 93.9681 163.615 84.0361V75.3148H163.614Z" fill="#FD8087"/>
<path d="M175.255 49.9802L169.169 63.0878C166.921 67.9293 170.457 73.4681 175.795 73.4681C181.132 73.4681 184.667 67.9293 182.42 63.0878L176.334 49.9802C176.121 49.5212 175.468 49.5212 175.255 49.9802Z" fill="#FDB4BA"/>
<path d="M175.461 63.0879L178.94 55.5939L176.334 49.9802C176.121 49.5211 175.468 49.5211 175.255 49.9802L169.169 63.0877C166.921 67.9291 170.457 73.4679 175.795 73.4679C176.939 73.4679 178.001 73.2117 178.94 72.7634C175.499 71.1226 173.695 66.8908 175.461 63.0879Z" fill="#FE99A0"/>
<path d="M103.393 75.0553L98.558 85.4682C96.7347 89.3953 99.6021 93.8881 103.932 93.8881C108.262 93.8881 111.129 89.3953 109.306 85.4682L104.471 75.0553C104.258 74.5963 103.606 74.5963 103.393 75.0553Z" fill="#FDB4BA"/>
<path d="M102.601 85.4682L105.953 78.2474L104.471 75.0553C104.258 74.5963 103.606 74.5963 103.393 75.0553L98.558 85.4682C96.7347 89.3953 99.6021 93.8881 103.932 93.8881C104.652 93.8881 105.329 93.7617 105.953 93.5367C102.823 92.408 101.081 88.7426 102.601 85.4682Z" fill="#FE99A0"/>
<path d="M114.818 47.3454L110.931 55.7184C109.429 58.9534 111.791 62.6546 115.358 62.6546C118.924 62.6546 121.287 58.9536 119.785 55.7184L115.897 47.3454C115.684 46.8862 115.031 46.8862 114.818 47.3454Z" fill="#FDB4BA"/>
<path d="M114.962 55.7174L117.373 50.5235L115.897 47.3444C115.684 46.8852 115.031 46.8852 114.818 47.3444L110.931 55.7174C109.429 58.9524 111.791 62.6536 115.358 62.6536C116.088 62.6536 116.767 62.4963 117.373 62.2217C115.018 61.1553 113.767 58.2901 114.962 55.7174Z" fill="#FE99A0"/>
<path d="M164.231 93.8791C166.216 93.2697 168.305 92.9433 170.441 92.9433C170.737 92.9433 171.032 92.9513 171.326 92.9635C172.805 89.2355 172.196 85.1449 170 82.0578C169.883 81.8927 169.684 81.8011 169.483 81.8187C165.711 82.1482 162.203 84.3339 160.323 87.8736C161.943 89.6207 163.265 91.6435 164.231 93.8791Z" fill="#FE99A0"/>
<path d="M153.476 83.4007L150.422 90.013C153.263 92.0558 155.491 94.7293 156.999 97.7453C159.181 95.9681 161.703 94.6267 164.418 93.8207C162.472 89.3166 158.984 85.4601 154.273 83.123C153.976 82.9753 153.615 83.0996 153.476 83.4007Z" fill="#FDB4BA"/>
<path d="M156.901 97.5511C158.085 99.8603 158.845 102.376 159.131 104.965C162.595 102.613 166.744 101.277 171.081 101.277C172.792 101.277 174.476 101.481 176.118 101.885L179.173 95.2701C179.312 94.9687 179.173 94.6138 178.868 94.4832C171.329 91.2523 162.906 92.6808 156.901 97.5511Z" fill="#FD8087"/>
<path d="M158.757 105.228L159.293 104.606C158.422 97.6943 154.206 91.3576 147.548 88.0548C147.251 87.9078 146.891 88.033 146.752 88.3335L143.933 94.4375C140.66 101.523 143.75 109.92 150.836 113.193L151.594 113.543L152.095 112.961C153.676 109.832 155.984 107.198 158.757 105.228Z" fill="#FE99A0"/>
<path d="M151.594 113.543L158.238 116.612C165.324 119.885 173.721 116.794 176.993 109.709L179.813 103.604C179.952 103.302 179.812 102.948 179.506 102.817C168.872 98.2595 156.476 102.973 151.594 113.543Z" fill="#FDB4BA"/>
<path d="M117.724 110.818C117.831 108.745 118.238 106.67 118.969 104.663C119.07 104.385 119.178 104.111 119.29 103.838C116.293 101.173 112.241 100.347 108.589 101.354C108.394 101.408 108.24 101.563 108.187 101.759C107.207 105.416 108.061 109.46 110.744 112.437C112.94 111.512 115.293 110.962 117.724 110.818V110.818Z" fill="#FE99A0"/>
<path d="M104.199 117.341L109.368 122.473C112.26 120.502 115.534 119.323 118.884 118.937C117.96 116.279 117.562 113.45 117.733 110.623C112.835 110.911 108.018 112.87 104.211 116.497C103.971 116.726 103.964 117.107 104.199 117.341Z" fill="#FDB4BA"/>
<path d="M118.668 118.962C121.243 118.639 123.866 118.786 126.398 119.403C125.372 115.343 125.536 110.988 127.019 106.912C127.604 105.304 128.372 103.792 129.313 102.387L124.142 97.2534C123.906 97.0195 123.525 97.0293 123.298 97.2713C117.683 103.25 116.145 111.654 118.668 118.962Z" fill="#FD8087"/>
<path d="M126.516 119.844L126.115 119.128C119.323 117.582 111.926 119.376 106.545 124.504C106.305 124.732 106.3 125.114 106.535 125.347L111.306 130.084C116.845 135.583 125.793 135.55 131.291 130.012L131.88 129.419L131.505 128.749C129.105 126.194 127.42 123.123 126.516 119.844Z" fill="#FE99A0"/>
<path d="M131.88 129.419L137.036 124.225C142.535 118.686 142.503 109.739 136.964 104.24L132.192 99.5025C131.956 99.2683 131.575 99.279 131.347 99.5212C123.428 107.956 123.617 121.216 131.88 129.419Z" fill="#FDB4BA"/>
</g>
<defs>
<filter id="filter0_d" x="0" y="0" width="281" height="202" filterUnits="userSpaceOnUse" color-interpolation-filters="sRGB">
<feFlood flood-opacity="0" result="BackgroundImageFix"/>
<feColorMatrix in="SourceAlpha" type="matrix" values="0 0 0 0 0 0 0 0 0 0 0 0 0 0 0 0 0 0 127 0"/>
<feMorphology radius="10" operator="dilate" in="SourceAlpha" result="effect1_dropShadow"/>
<feOffset dy="4"/>
<feGaussianBlur stdDeviation="5"/>
<feColorMatrix type="matrix" values="0 0 0 0 0.960784 0 0 0 0 0.207843 0 0 0 0 0.666667 0 0 0 0.25 0"/>
<feBlend mode="normal" in2="BackgroundImageFix" result="effect1_dropShadow"/>
<feBlend mode="normal" in="SourceGraphic" in2="effect1_dropShadow" result="shape"/>
</filter>
</defs>
</svg>
