<?xml version="1.0" encoding="iso-8859-1"?>
<!-- Generator: Adobe Illustrator 21.0.0, SVG Export Plug-In . SVG Version: 6.00 Build 0)  -->
<svg version="1.1" id="Capa_1" xmlns="http://www.w3.org/2000/svg" xmlns:xlink="http://www.w3.org/1999/xlink" x="0px" y="0px"
	 viewBox="0 0 512 512" style="enable-background:new 0 0 512 512;" xml:space="preserve">
<path style="fill:#F2D1A5;" d="M487.275,289.841h-48.932c13.655,0,24.725-11.07,24.725-24.725c0-13.656-11.07-24.725-24.725-24.725
	H310.885c19.126-0.005,34.629-15.512,34.629-34.639V190.94H193.935c-19.367,0-37.41,9.831-47.91,26.106l-5.132,7.955H51.641v179.131
	h89.253l5.132,7.955c10.499,16.274,28.543,26.106,47.91,26.106h82.006h112.981c13.864,0,25.474-11.346,25.209-25.207
	c-0.257-13.433-11.226-24.243-24.721-24.243h48.932c13.655,0,24.725-11.07,24.725-24.725s-11.07-24.725-24.725-24.725h48.932
	c13.655,0,24.725-11.07,24.725-24.725S500.93,289.841,487.275,289.841z"/>
<g>
	<path style="fill:#F2BB88;" d="M438.343,289.841c13.655,0,24.725-11.07,24.725-24.725H289.871v24.725H438.343z"/>
	<path style="fill:#F2BB88;" d="M438.343,388.742c13.655,0,24.725-11.07,24.725-24.725H289.871v24.725H438.343z"/>
	<path style="fill:#F2BB88;" d="M389.407,438.192c13.655,0,24.725-11.07,24.725-24.725H289.871v24.725H389.407z"/>
	<path style="fill:#F2BB88;" d="M487.275,339.292c13.655,0,24.725-11.07,24.725-24.725H289.871v24.725H487.275z"/>
</g>
<path style="fill:#FE6A16;" d="M461.284,96.387c-30.305-30.188-79.348-30.094-109.536,0.213l-11.478,11.524L328.792,96.6
	c-30.19-30.307-79.232-30.402-109.536-0.213c-30.307,30.19-30.403,79.229-0.213,109.536L340.27,327.622l121.227-121.698
	C491.686,175.617,491.59,126.577,461.284,96.387z"/>
<path style="fill:#F24500;" d="M461.284,96.387c-30.305-30.188-79.348-30.094-109.536,0.213l-11.478,11.524v219.498l121.227-121.699
	C491.686,175.617,491.59,126.577,461.284,96.387z"/>
<path style="fill:#F2D1A5;" d="M193.935,190.94c-19.367,0-37.41,9.832-47.91,26.106l-5.132,7.955H51.641v179.131h28.246V240.391
	h230.998c19.126-0.005,34.629-15.512,34.629-34.639V190.94H193.935z"/>
<path style="fill:#F2BB88;" d="M237.184,215.666h-31.867v45.499c0,20.66-16.808,37.468-37.468,37.468H51.641V330.5h116.208
	c38.231,0,69.335-31.104,69.335-69.336V240.39h73.702c15.68-0.004,28.918-10.43,33.182-24.725H237.184V215.666z"/>
<rect y="203.06" style="fill:#64E1DC;" width="103.28" height="223.01"/>
<rect y="314.57" style="fill:#00C8C8;" width="103.28" height="111.5"/>
<g>
</g>
<g>
</g>
<g>
</g>
<g>
</g>
<g>
</g>
<g>
</g>
<g>
</g>
<g>
</g>
<g>
</g>
<g>
</g>
<g>
</g>
<g>
</g>
<g>
</g>
<g>
</g>
<g>
</g>
</svg>
