<svg width="120" height="119" viewBox="0 0 120 119" fill="none" xmlns="http://www.w3.org/2000/svg">
<path d="M34.1328 54H31.7305V39.5977H23.2344V37.1953H42.6289V39.5977H34.1328V54ZM60.1602 54H57.7578V47.4023C57.7578 46.8242 57.6484 46.2812 57.4297 45.7734C57.2109 45.2656 56.9141 44.8242 56.5391 44.4492C56.1641 44.0664 55.7227 43.7656 55.2148 43.5469C54.7148 43.3203 54.1758 43.2031 53.5977 43.1953H47V54H44.5977V36H47V40.8047H53.5977C54.5039 40.8047 55.3555 40.9805 56.1523 41.332C56.9492 41.6758 57.6445 42.1484 58.2383 42.75C58.832 43.3438 59.3008 44.043 59.6445 44.8477C59.9883 45.6445 60.1602 46.4961 60.1602 47.4023V54ZM78.7578 45C78.7578 45.5859 78.6484 46.1328 78.4297 46.6406C78.2109 47.1484 77.9102 47.5938 77.5273 47.9766C77.1523 48.3516 76.707 48.6484 76.1914 48.8672C75.6836 49.0859 75.1406 49.1953 74.5625 49.1953H65.3633C65.5352 49.5469 65.75 49.8711 66.0078 50.168C66.2656 50.4648 66.5547 50.7188 66.875 50.9297C67.1953 51.1406 67.543 51.3047 67.918 51.4219C68.3008 51.5391 68.6992 51.5977 69.1133 51.5977H76.9648V54H69.1133C68.207 53.9922 67.3555 53.8164 66.5586 53.4727C65.7617 53.1211 65.0664 52.6484 64.4727 52.0547C63.8867 51.4531 63.4219 50.7539 63.0781 49.957C62.7344 49.1602 62.5625 48.3086 62.5625 47.4023C62.5625 46.4961 62.7344 45.6445 63.0781 44.8477C63.4219 44.0508 63.8867 43.3555 64.4727 42.7617C65.0664 42.1602 65.7617 41.6875 66.5586 41.3438C67.3555 40.9922 68.207 40.8125 69.1133 40.8047H74.5625C75.1406 40.8047 75.6836 40.9141 76.1914 41.1328C76.707 41.3516 77.1523 41.6523 77.5273 42.0352C77.9102 42.4102 78.2109 42.8516 78.4297 43.3594C78.6484 43.8672 78.7578 44.4141 78.7578 45ZM74.5625 46.8047C74.8047 46.8047 75.0352 46.7578 75.2539 46.6641C75.4727 46.5703 75.6641 46.4414 75.8281 46.2773C75.9922 46.1133 76.1211 45.9219 76.2148 45.7031C76.3086 45.4844 76.3555 45.25 76.3555 45C76.3555 44.7578 76.3086 44.5273 76.2148 44.3086C76.1211 44.0898 75.9922 43.8984 75.8281 43.7344C75.6641 43.5703 75.4727 43.4414 75.2539 43.3477C75.0352 43.2461 74.8047 43.1953 74.5625 43.1953H69.1133C68.582 43.1953 68.082 43.2891 67.6133 43.4766C67.1523 43.6641 66.7383 43.9219 66.3711 44.25C66.0117 44.5703 65.7109 44.9531 65.4688 45.3984C65.2344 45.8359 65.082 46.3047 65.0117 46.8047H74.5625ZM97.0742 47.4023C97.0742 48.3086 96.9023 49.1602 96.5586 49.957C96.2148 50.7539 95.7461 51.4531 95.1523 52.0547C94.5664 52.6484 93.875 53.1211 93.0781 53.4727C92.2812 53.8164 91.4297 53.9922 90.5234 54H86.832C85.9258 53.9922 85.0742 53.8164 84.2773 53.4727C83.4805 53.1211 82.7852 52.6484 82.1914 52.0547C81.6055 51.4531 81.1406 50.7539 80.7969 49.957C80.4531 49.1602 80.2812 48.3086 80.2812 47.4023C80.2812 46.4961 80.4531 45.6445 80.7969 44.8477C81.1406 44.043 81.6055 43.3438 82.1914 42.75C82.7852 42.1484 83.4805 41.6758 84.2773 41.332C85.0742 40.9805 85.9258 40.8047 86.832 40.8047H90.5234C91.125 40.8047 91.707 40.8828 92.2695 41.0391C92.832 41.1953 93.3555 41.418 93.8398 41.707C94.3242 41.9961 94.7656 42.3438 95.1641 42.75C95.5625 43.1484 95.9023 43.5938 96.1836 44.0859C96.4648 44.5703 96.6836 45.0938 96.8398 45.6562C96.9961 46.2188 97.0742 46.8008 97.0742 47.4023ZM94.6836 47.4023C94.6836 46.8242 94.5742 46.2812 94.3555 45.7734C94.1367 45.2656 93.8398 44.8242 93.4648 44.4492C93.0898 44.0664 92.6484 43.7656 92.1406 43.5469C91.6406 43.3203 91.1016 43.2031 90.5234 43.1953H86.832C86.2539 43.2031 85.7109 43.3203 85.2031 43.5469C84.7031 43.7656 84.2656 44.0664 83.8906 44.4492C83.5156 44.8242 83.2188 45.2656 83 45.7734C82.7891 46.2812 82.6836 46.8242 82.6836 47.4023C82.6836 47.9805 82.7891 48.5234 83 49.0312C83.2188 49.5391 83.5156 49.9844 83.8906 50.3672C84.2656 50.7422 84.7031 51.043 85.2031 51.2695C85.7109 51.4883 86.2539 51.5977 86.832 51.5977H90.5234C91.1016 51.5977 91.6406 51.4883 92.1406 51.2695C92.6484 51.043 93.0898 50.7422 93.4648 50.3672C93.8398 49.9844 94.1367 49.5391 94.3555 49.0312C94.5742 48.5234 94.6836 47.9805 94.6836 47.4023Z" fill="#FC0FC0"/>
<g clip-path="url(#clip0)">
<path d="M92.9533 4.54943C91.9431 4.54943 90.9203 4.59461 89.914 4.68472C79.5215 5.61705 70.046 11.8754 63.1433 22.3411C55.1354 10.6286 41.899 3.10769 29.1671 3.10769C26.3691 3.10769 23.5968 3.46644 20.9285 4.17482C12.6827 6.36363 5.95955 12.4512 2.48483 20.8791C-1.36597 30.2161 -0.703249 41.1532 4.21492 49.4218C10.9693 60.7787 22.5498 67.7106 33.7474 74.4131C39.4992 77.8576 45.4476 81.4159 50.5492 85.4948C52.0688 86.7078 53.9777 88.2891 55.6154 90.012C53.549 92.0314 49.4632 98.7437 49.4239 98.8242C48.1399 101.503 46.3762 107.165 47.9093 111.402C48.5645 113.209 49.7414 114.519 51.4111 115.293C52.2674 115.69 53.1686 115.892 54.0884 115.892C58.0432 115.892 61.7061 112.176 64.0847 109.059C68.4341 103.353 69.0852 97.3647 66.0178 91.2505C71.2803 86.5297 77.0056 82.1418 82.5451 77.8954C92.0749 70.5915 101.928 63.0372 109.769 53.5428C113.599 48.9031 125.442 32.5866 117.072 17.3855C112.646 9.3478 103.63 4.54943 92.9533 4.54943ZM58.6993 102.714C57.9033 104.222 57.0998 105.311 56.2631 106.007C56.4315 103.766 57.2925 101.579 57.8454 100.376C58.0005 100.038 59.0175 98.4789 59.7488 97.4358C59.9785 99.2099 59.632 100.947 58.6993 102.714ZM49.177 18.7249C51.6299 20.7292 53.7986 22.9932 55.6227 25.4495C55.8398 25.7424 56.1732 26.2946 56.5617 26.9337C58.8004 30.6323 61.206 34.2434 63.8101 34.2434C65.1021 34.2434 66.1962 33.3428 67.061 31.5644C72.5844 20.2214 81.3982 13.4587 91.8779 12.5204C92.4871 12.4649 93.1045 12.4391 93.7148 12.4391C101.733 12.4391 108.783 17.0931 111.261 24.0188C114.525 33.1489 109.359 43.9682 95.4658 57.0939C89.5006 62.7311 82.8843 67.7998 76.4873 72.7027C71.4659 76.5488 66.2783 80.5241 61.4212 84.7581C57.0531 79.9568 51.3236 75.9348 46.7765 72.9418C44.0788 71.1651 41.1631 69.4275 38.0766 67.5876C22.9016 58.5435 5.70416 48.2927 8.41537 29.2059C9.96518 18.2926 18.1562 11.2411 29.2831 11.2411C30.1007 11.2411 30.9374 11.2795 31.7716 11.3593C37.8902 11.9365 44.0711 14.553 49.177 18.7249Z" fill="#FC0FC0"/>
</g>
<defs>
<clipPath id="clip0">
<rect width="120" height="119" fill="white"/>
</clipPath>
</defs>
</svg>
