<svg width="281" height="202" viewBox="0 0 281 202" fill="none" xmlns="http://www.w3.org/2000/svg">
<g filter="url(#filter0_d)">
<rect width="241" height="162" transform="translate(20 16)" fill="white"/>
<g clip-path="url(#clip0)">
<path d="M199.182 97C199.182 124.613 172.725 147 140.091 147C129.411 147 119.393 144.602 110.746 140.406C110.659 137.971 107.981 136.203 105.167 136.721L104.415 136.859C90.1891 127.73 81 113.273 81 97C81 87.9746 83.8276 79.5078 88.7741 72.1973C98.9558 57.1445 118.123 47 140.091 47C162.058 47 181.226 57.1445 191.408 72.1973C196.354 79.5078 199.182 87.9746 199.182 97Z" fill="#FF0000"/>
<path d="M199.182 97C199.182 124.613 172.725 147 140.091 147C129.411 147 119.393 144.602 110.746 140.406C110.659 137.971 107.981 136.203 105.167 136.721L104.415 136.859C90.1891 127.73 81 113.273 81 97C81 87.9746 83.8276 79.5078 88.7741 72.1973C92.3081 77.4199 96.9222 82.0508 102.36 85.873C112.595 93.0664 125.748 97.3926 140.091 97.3926C154.434 97.3926 167.587 93.0664 177.821 85.873C183.26 82.0508 187.874 77.4199 191.408 72.1973C196.354 79.5078 199.182 87.9746 199.182 97Z" fill="#FF0000"/>
<path d="M184.492 104.641C184.492 124.293 164.614 140.225 140.091 140.225C132.347 140.225 125.067 138.633 118.728 135.84C116.466 137.775 113.759 139.338 110.746 140.406C108.542 139.34 106.428 138.154 104.415 136.859C106.7 135.166 108.609 133.123 110.031 130.826C101.216 124.324 95.6896 115 95.6896 104.641C95.6896 97.752 98.1317 91.3203 102.36 85.873C110.197 75.7773 124.164 69.0586 140.091 69.0586C156.018 69.0586 169.985 75.7773 177.821 85.873C182.05 91.3203 184.492 97.752 184.492 104.641Z" fill="white"/>
<path d="M184.492 104.64C184.492 124.294 164.613 140.224 140.091 140.224V69.0586C164.613 69.0586 184.492 84.9885 184.492 104.64V104.64Z" fill="#D9E3FC"/>
<path d="M121.405 82.9429H118.975C117.408 82.9429 116.139 84.0169 116.139 85.3403V106.959C116.139 108.282 117.408 109.356 118.975 109.356H121.405C122.969 109.356 124.238 108.282 124.238 106.959V85.3401C124.238 84.0167 122.969 82.9429 121.405 82.9429V82.9429Z" fill="#303C5A"/>
<path d="M121.405 82.9426H120.19V109.356H121.405C122.969 109.356 124.238 108.282 124.238 106.959V85.3399C124.238 84.0165 122.969 82.9426 121.405 82.9426V82.9426Z" fill="#22273B"/>
<path d="M164.438 99.431C161.777 100.751 159.222 102.216 156.815 103.832C154.409 105.449 152.151 107.222 150.087 109.161C149.945 109.291 149.754 109.358 149.562 109.358C149.37 109.358 149.178 109.291 149.037 109.161C144.907 105.281 140.008 102.074 134.686 99.4312C131.46 97.8288 129.338 94.8048 129.523 91.3749C129.77 86.8417 134.12 83.1624 139.478 82.9536C143.979 82.7792 147.891 85.0163 149.562 88.2657C151.236 85.0165 155.145 82.7794 159.647 82.9536C165.004 83.1626 169.355 86.8419 169.602 91.3749C169.788 94.8044 167.664 97.8306 164.438 99.431V99.431Z" fill="#FF0000"/>
<path d="M164.438 99.4295C161.777 100.75 159.222 102.214 156.815 103.831C154.409 105.447 152.151 107.22 150.087 109.159C149.945 109.289 149.754 109.356 149.562 109.356V88.2639C151.235 85.0147 155.145 82.7775 159.646 82.9518C165.004 83.1608 169.354 86.8401 169.601 91.3731C169.788 94.8029 167.664 97.8291 164.438 99.4295V99.4295Z" fill="#FF0000"/>
<path d="M125.98 113.411H124.818C124.065 113.411 123.374 113.77 123.036 114.342L120.243 119.032L117.335 114.319C116.991 113.761 116.308 113.411 115.564 113.411H114.396C112.894 113.411 111.929 114.762 112.627 115.888L117.389 123.569V130.334C117.389 131.267 118.283 132.023 119.387 132.023H121.099C122.203 132.023 123.097 131.267 123.097 130.334V123.465L127.753 115.881C128.446 114.757 127.48 113.411 125.98 113.411V113.411Z" fill="#303C5A"/>
<path d="M165.788 113.411H164.078C162.974 113.411 162.08 114.168 162.08 115.102V125.843C162.08 127.299 160.997 128.215 159.595 128.215C158.168 128.215 156.939 127.278 156.939 125.843V115.102C156.939 114.168 156.045 113.411 154.941 113.411H153.229C152.125 113.411 151.231 114.168 151.231 115.102V125.843C151.231 129.714 154.552 132.232 159.57 132.232H159.595C164.576 132.223 167.787 129.708 167.787 125.843V115.102C167.786 114.168 166.892 113.411 165.788 113.411V113.411Z" fill="#303C5A"/>
<path d="M140.163 113.266H140.09C134.605 113.266 130.62 116.368 130.62 120.697V124.822C130.62 129.172 134.605 132.336 140.09 132.336H140.163C145.61 132.308 149.562 129.131 149.562 124.822V120.697C149.562 116.407 145.61 113.294 140.163 113.266V113.266ZM143.708 124.843C143.708 126.842 142.133 128.32 140.163 128.32C138.196 128.32 136.474 126.842 136.474 124.843V120.718C136.474 118.72 138.173 117.283 140.163 117.283C142.133 117.283 143.708 118.72 143.708 120.718V124.843Z" fill="#303C5A"/>
<path d="M149.562 120.697V124.822C149.562 129.131 145.61 132.308 140.163 132.336V128.319C142.132 128.319 143.707 126.842 143.707 124.843V120.718C143.707 118.719 142.132 117.282 140.163 117.282V113.266C145.61 113.294 149.562 116.407 149.562 120.697V120.697Z" fill="#22273B"/>
<path d="M127.753 115.881L123.097 123.465V130.334C123.097 131.266 122.203 132.023 121.099 132.023H120.243V119.032L123.036 114.342C123.374 113.77 124.065 113.411 124.818 113.411H125.98C127.48 113.411 128.446 114.757 127.753 115.881V115.881Z" fill="#22273B"/>
<path d="M167.786 115.102V125.843C167.786 129.708 164.576 132.224 159.595 132.232V128.215C160.997 128.215 162.08 127.299 162.08 125.843V115.102C162.08 114.168 162.974 113.411 164.078 113.411H165.788C166.892 113.411 167.786 114.168 167.786 115.102V115.102Z" fill="#22273B"/>
</g>
</g>
<defs>
<filter id="filter0_d" x="0" y="0" width="281" height="202" filterUnits="userSpaceOnUse" color-interpolation-filters="sRGB">
<feFlood flood-opacity="0" result="BackgroundImageFix"/>
<feColorMatrix in="SourceAlpha" type="matrix" values="0 0 0 0 0 0 0 0 0 0 0 0 0 0 0 0 0 0 127 0"/>
<feMorphology radius="10" operator="dilate" in="SourceAlpha" result="effect1_dropShadow"/>
<feOffset dy="4"/>
<feGaussianBlur stdDeviation="5"/>
<feColorMatrix type="matrix" values="0 0 0 0 1 0 0 0 0 0 0 0 0 0 0 0 0 0 1 0"/>
<feBlend mode="normal" in2="BackgroundImageFix" result="effect1_dropShadow"/>
<feBlend mode="normal" in="SourceGraphic" in2="effect1_dropShadow" result="shape"/>
</filter>
<clipPath id="clip0">
<rect width="118.182" height="100" fill="white" transform="translate(81 47)"/>
</clipPath>
</defs>
</svg>
